<svg width="512" height="512" viewBox="0 0 512 512" fill="none" xmlns="http://www.w3.org/2000/svg">
<rect width="512" height="512" fill="white"/>
<path d="M256.001 43.333c-117.29 0-212.668 95.378-212.668 212.667s95.378 212.667 212.668 212.667c117.29 0 212.667-95.378 212.667-212.667S373.291 43.333 256.001 43.333zm-28.1 346.54h-44.426L169.19 321.41v68.463H126.34V122.127h42.85v73.812l16.142 27.525 14.89-27.525V122.127h42.85v267.746zM280.4 122.127h89.431v40.35H280.4v-40.35zm0 82.19v40.35h89.431v-40.35H280.4zm-1.488 81.043v40.35h90.919v-40.35h-90.919z" fill="#36454F"/>
</svg>
